<svg width="368" height="97" fill="none" xmlns="http://www.w3.org/2000/svg"><path fill-rule="evenodd" clip-rule="evenodd" d="M364.737 22.12l-14.321 34.81-14.684-34.81h-3.263l16.859 39.525h2.175L368 22.12h-3.263zm-126.353 3.082c7.07 0 10.696 2.72 10.696 8.34 0 2.538-1.088 4.533-3.082 6.164-1.994 1.632-4.351 2.358-6.889 2.358h-6.707v-16.68c2.356-.182 4.35-.182 5.982-.182zm-6.164 19.944h7.614l13.052 16.499h3.807l-13.777-17.043c2.719-.544 4.895-1.813 6.707-3.808 1.813-1.994 2.72-4.351 2.72-7.07 0-7.616-4.532-11.242-13.778-11.242h-9.426v39.163h3.081v-16.5zm-24.291 16.318v-2.901h-19.216V43.15h17.041v-2.9h-17.041V25.2h18.672v-2.9h-21.754v39.163h22.298zM150.1 25.202v36.262h3.082V25.202h14.502V22.3h-32.086v2.9H150.1zm-32.63 26.652c0 2.357-.906 4.17-2.719 5.44-1.813 1.269-3.988 1.994-6.526 1.994-3.807 0-7.977-1.813-10.152-4.895l-1.813 2.175c.907 1.813 2.538 3.083 4.895 4.17 2.356 1.088 4.713 1.45 7.07 1.45 3.444 0 6.526-.906 8.883-2.9 2.356-1.813 3.625-4.351 3.625-7.434 0-13.598-20.303-9.246-20.303-20.125 0-4.17 3.263-6.89 8.339-6.89 3.625 0 6.526 1.088 8.701 3.445l1.632-2.357c-2.176-2.538-6.164-3.989-10.515-3.989-3.444 0-6.344.907-8.339 2.72-1.994 1.813-3.081 4.17-3.081 7.071 0 12.873 20.303 9.065 20.303 20.125zm-39.338 9.61v-2.901H58.916V43.15h16.86v-2.9h-16.86V25.2h18.672v-2.9H55.835v39.163h22.297zM32.087 22.301h-2.9v33.905L2.536 22.3H0v39.163h2.9V27.74l26.83 33.724h2.357V22.3z" fill="#fff"/><path fill-rule="evenodd" clip-rule="evenodd" d="M296.394 21.757a25.146 25.146 0 0125.198 25.202 25.146 25.146 0 01-25.198 25.202H0v-3.264h296.394c12.146 0 22.116-9.79 22.116-22.12 0-12.147-9.789-22.119-22.116-22.119-12.146 0-22.116 9.79-22.116 22.12 0 5.439 1.994 10.516 5.438 14.504h-4.169c-2.901-4.17-4.532-9.065-4.532-14.504 0-13.599 11.42-25.021 25.379-25.021zm69.974 47.322h-51.846c-1.631 1.269-3.263 2.357-5.076 3.263h56.741V69.08h.181zM9.245 3.989L6.526 7.615l2.9 3.989h1.632l-2.9-3.989 2.719-3.626H9.245zm-3.081 7.615V3.989h-1.27v7.796h1.27v-.181zm-6.164 0h1.632l2.9-3.989-2.72-3.626H.183L2.9 7.796 0 11.604zm18.49-5.62v5.801h1.45V3.989h-1.45l-4.531 5.62V3.99h-1.27v7.796h1.45l4.352-5.802zm10.515 5.62V3.989h-5.438l-.182 2.357c-.181 3.626-1.269 4.17-1.813 3.989l.182 1.45c1.631 0 2.719-.725 3.081-5.077V5.44h2.72v6.346h1.45v-.181zm3.082-.907c.725.725 1.813 1.088 2.9 1.088 1.27 0 2.176-.363 2.9-1.088.726-.725 1.088-1.813 1.088-2.9 0-1.089-.362-2.176-1.087-2.902-.725-.725-1.813-1.088-2.9-1.088-1.27 0-2.176.363-2.901 1.088-.725.726-1.27 1.813-1.27 2.901 0 1.088.545 2.176 1.27 2.901zm.181-2.9c0-.726.181-1.451.725-1.995s1.088-.725 1.813-.725c.725 0 1.45.18 1.813.725.544.544.725 1.088.725 1.994 0 1.632-1.088 2.72-2.72 2.72-.724 0-1.45-.181-1.994-.725 0-.544-.362-1.27-.362-1.995zm14.684-1.814v5.802h1.45V3.989h-1.45L42.42 9.79V3.989h-1.45v7.796h1.45l4.532-5.802zM42.238 0c0 1.45.907 2.357 2.538 2.357 1.45 0 2.538-1.088 2.538-2.357h-1.269c0 .907-.544 1.27-1.269 1.27-.725 0-1.269-.363-1.269-1.27h-1.269zm17.403 3.989l-3.263 3.807 3.445 3.808h1.813L58.01 7.615l3.444-3.626h-1.813zm-3.625 7.615V3.989h-1.45v7.796h1.45v-.181zm7.432-.907c.725.725 1.813 1.088 2.9 1.088 1.27 0 2.176-.363 2.901-1.088.725-.725 1.088-1.813 1.088-2.9 0-1.089-.363-2.176-1.088-2.902-.725-.725-1.813-1.088-2.9-1.088-1.27 0-2.176.363-2.9 1.088-.726.726-1.088 1.632-1.088 2.901-.182 1.088.18 2.176 1.087 2.901zm.182-2.9c0-.726.18-1.451.725-1.995.543-.544 1.087-.725 1.813-.725.725 0 1.45.18 1.812.725.544.544.725 1.088.725 1.994 0 1.632-1.087 2.72-2.719 2.72-.725 0-1.45-.181-1.994-.725 0-.544-.362-1.27-.362-1.995zm10.151 3.807v-5.62l2.72 3.625 2.719-3.626v5.62h1.45V3.99h-1.269l-2.72 3.807-2.9-3.807h-1.269v7.796h1.27v-.181zm16.316 0V3.989h-6.89v7.796h1.451V5.258h4.17v6.346h1.269zm9.064 0V3.989h-5.439l-.181 2.357c-.181 3.626-1.27 4.17-1.813 3.989l.181 1.269c1.632 0 2.72-.725 3.082-5.077v-1.27h2.9v6.347h1.27zm8.701-1.813c-.544.544-1.269.725-2.357.725-1.45 0-2.538-.907-2.719-2.357h5.982v-.907c0-1.088-.362-1.813-1.087-2.538-.725-.544-1.45-.907-2.538-.907-1.269 0-2.176.363-2.901 1.088-.725.726-1.087 1.632-1.087 2.901 0 1.27.362 2.176 1.087 2.901.725.725 1.813 1.088 3.082 1.088s2.176-.363 2.901-1.088l-.363-.906zm-2.719-4.714c1.269 0 2.175.725 2.175 1.994h-4.713c.181-1.088 1.088-1.994 2.538-1.994zm10.333-1.088l-3.263 3.807 3.444 3.989h1.813l-3.626-3.989 3.445-3.626h-1.813v-.18zm-3.444 7.615V3.989h-1.451v7.796h1.451v-.181zm12.689-1.995c-.544.726-1.269.907-2.175.907-.725 0-1.45-.181-1.994-.725s-.907-1.088-.907-1.995c0-.725.182-1.45.725-1.994.544-.544 1.088-.725 1.813-.725.907 0 1.632.362 2.176.725l.725-1.088c-.725-.725-1.632-1.088-3.082-1.088-1.088 0-1.994.363-2.719 1.088-.725.725-1.088 1.813-1.088 2.901 0 1.27.363 2.176 1.088 2.9.725.726 1.813 1.089 3.082 1.089 1.268 0 2.356-.544 2.9-1.27l-.544-.725zm111.307 87.21h2.719c2.357 0 3.626-.725 3.626-2.176 0-.907-.544-1.632-1.813-1.813.906-.181 1.631-.907 1.631-1.813 0-1.27-1.087-1.995-3.263-1.995h-2.9v7.797zm3.082-3.445c1.269 0 1.812.362 1.812 1.269 0 .906-.725 1.27-1.994 1.27h-1.631v-2.358h1.813v-.181zm-.182-3.264c1.269 0 1.813.363 1.813 1.088 0 .725-.544 1.27-1.631 1.27h-1.813V90.11h1.631zm8.158 6.709c1.088 0 1.994-.182 2.357-.725.543-.544.725-1.27.725-1.995 0-1.632-.907-2.72-3.082-2.72h-1.269v-2.357h-1.45v7.797h2.719zm5.982 0v-7.797h-1.45v7.797h1.45zm-6.163-4.17c1.269 0 1.812.543 1.812 1.45 0 .907-.543 1.45-1.812 1.45h-.907v-2.9h.907zm14.502 1.994c-.544.725-1.269.906-2.175.906-.725 0-1.45-.18-1.994-.725-.544-.544-.725-1.088-.725-1.994 0-.725.181-1.45.725-1.995.544-.543 1.087-.725 1.812-.725.907 0 1.632.363 2.176.725l.544-1.087c-.725-.726-1.632-1.088-3.082-1.088-1.088 0-1.994.362-2.719 1.088-.725.725-1.088 1.813-1.088 2.9 0 1.27.363 2.176 1.088 2.901.725.726 1.813 1.088 3.081 1.088 1.269 0 2.357-.543 2.901-1.269l-.544-.725zm12.327 2.176v-7.797h-1.45v6.346h-2.9v-6.346h-1.451v6.346h-2.9v-6.346h-1.45v7.797h10.151zm8.158-5.802v5.802h1.45v-7.797h-1.45l-4.532 5.802v-5.802h-1.45v7.797h1.45l4.532-5.802zm9.789 0v5.802h1.45v-7.797h-1.45l-4.532 5.802v-5.802h-1.45v7.797h1.45l4.532-5.802zm-4.713-5.802c0 1.45.906 2.357 2.538 2.357 1.45 0 2.538-1.088 2.538-2.357h-1.269c0 .906-.544 1.27-1.269 1.27-.725 0-1.269-.364-1.269-1.27h-1.269zm19.397 11.604v-7.797h-6.889v7.797h1.45v-6.346h4.17v6.346h1.269zm8.339-5.802v5.802h1.45v-7.797h-1.45l-4.532 5.802v-5.802h-1.451v7.797h1.451l4.532-5.802zm10.333 5.802v-7.797h-5.439l-.181 2.357c-.181 3.627-1.269 4.17-1.813 3.99l.181 1.268c1.632 0 2.72-.725 3.082-5.076v-1.27h2.719v6.346h1.451v.182zm3.081-.907c.726.725 1.813 1.088 2.901 1.088 1.269 0 2.175-.363 2.9-1.088.726-.725 1.088-1.813 1.088-2.9 0-1.089-.362-2.177-1.088-2.902-.725-.725-1.812-1.088-2.9-1.088-1.269 0-2.175.363-2.901 1.088-.725.725-1.087 1.632-1.087 2.901 0 1.088.362 1.995 1.087 2.901zm.363-2.9c0-.726.181-1.451.725-1.995s1.088-.725 1.813-.725c.725 0 1.45.18 1.813.725.544.544.725 1.088.725 1.994 0 1.632-1.088 2.72-2.719 2.72-.725 0-1.451-.181-1.994-.725 0-.544-.363-1.27-.363-1.995zm10.333-2.54v6.347h1.45v-6.346h2.901v-1.45h-7.07v1.45h2.719zm6.164.182c.725-.362 1.45-.544 2.175-.544 1.45 0 1.813.725 1.813 2.357-.544-.362-1.088-.544-1.994-.544-1.632 0-2.901.907-2.901 2.539 0 1.45.907 2.357 2.357 2.357 1.088 0 1.813-.363 2.538-1.088v.906h1.269v-4.714c0-2.175-.907-3.082-2.901-3.082-.906 0-1.813.181-2.538.725l.182 1.088zm1.812 5.077c-.906 0-1.45-.544-1.45-1.27 0-.906.725-1.269 1.632-1.269.725 0 1.269.182 1.812.544v.907c-.543.725-1.268 1.088-1.994 1.088zm13.778-6.709l-2.719 3.808 2.9 3.989h1.632l-3.082-3.99 2.719-3.807h-1.45zm-2.901 7.797v-7.797h-1.45v7.797h1.45zm-6.345 0h1.632l2.9-3.99-2.719-3.807h-1.631l2.719 3.808-2.901 3.989zm14.865-3.808v-8.34h-1.45v8.34h1.45zm-1.631 2.901c0 .544.363.907.906.907.544 0 .907-.363.907-.907s-.363-.906-.907-.906c-.543 0-.906.362-.906.906z" fill="#fff"/></svg>