<svg width="41" height="41" fill="none" xmlns="http://www.w3.org/2000/svg"><path d="M20.334 10.217a5.125 5.125 0 105.125 5.125 5.131 5.131 0 00-5.125-5.125zm0 7.688a2.563 2.563 0 110-5.125 2.563 2.563 0 010 5.125z" fill="#441D06"/><path d="M30.182 5.487a13.928 13.928 0 00-21.517 17.45L18.346 37.8a2.372 2.372 0 003.975 0l9.683-14.863a13.928 13.928 0 00-1.822-17.45zm-.325 16.05l-9.523 14.62-9.523-14.62C7.896 17.064 8.521 11.076 12.298 7.3a11.365 11.365 0 0116.072 0c3.776 3.776 4.401 9.764 1.486 14.239z" fill="#441D06"/></svg>