<svg width="289" height="96" fill="none" xmlns="http://www.w3.org/2000/svg"><path fill-rule="evenodd" clip-rule="evenodd" d="M88.367 23.309C78.314 32.17 73.345 41.074 74.35 46.833c.474 2.772 2.6 4.223 5.458 5.07-6.434-7.97-.46-18.756 10.555-28.594h-1.996zm28.781-17.564a120.15 120.15 0 00-13.4 6.692h1.537a126.469 126.469 0 0111.863-6.434v-.258zM97.932 61.338c-3.446 4.97-24.615 26.368-54.373 34.64 23.74-4.207 51.515-22.619 54.373-34.64z" fill="#4D2506"/><path fill-rule="evenodd" clip-rule="evenodd" d="M92.59 75.111c7.252-3.231 13.17-11.676 11.188-17.937-.862-2.686-2.787-5.07-7.31-6.29-2.054-.56-4.022-1.064-5.745-1.696-7.281-2.728-8.057-8.33-3.993-13.887-6.16 4.897-4.81 13.227 2.758 16.013 2.01.733 4.179 1.178 6.09 1.824 11.761 3.906 3.719 17.32-2.988 21.973zM286.559 36.68l-11.174 27.129-11.489-27.13h-2.571l13.141 30.82h1.709L289 36.695l-2.441-.014zm-64.786 15.266a13.191 13.191 0 013.662-9.55 12.708 12.708 0 0118.196 0 13.055 13.055 0 013.706 9.55 13.527 13.527 0 01-3.648 9.565 11.948 11.948 0 01-9.163 3.835 12.133 12.133 0 01-9.12-3.835 13.371 13.371 0 01-3.633-9.565zm-2.528 0a15.327 15.327 0 004.338 11.245 14.852 14.852 0 0010.943 4.41 14.676 14.676 0 0010.915-4.453 15.462 15.462 0 004.395-11.216 15.276 15.276 0 00-4.395-11.217 14.725 14.725 0 00-10.915-4.437 14.52 14.52 0 00-10.943 4.51 15.316 15.316 0 00-4.309 11.158h-.029zm-26.827-13.083c5.543 0 8.286 2.183 8.286 6.534a5.848 5.848 0 01-2.398 4.869 8.315 8.315 0 01-5.4 1.867h-5.228V38.949c1.867-.043 3.476-.086 4.74-.086zm-4.74 15.539h5.932l10.168 12.81h2.958l-10.685-13.298a9.363 9.363 0 005.199-2.973 8.203 8.203 0 002.054-5.544c0-5.874-3.591-8.803-10.7-8.803h-7.324v30.619h2.398V54.402zm-20.336 12.81v-2.254H152.42V52.865h13.17v-2.269h-13.17V38.95h14.491v-2.27h-16.889v30.534h17.32zM120.925 38.95v28.264h2.399V38.949h11.302v-2.27h-25.003v2.27h11.302zm-58.71 28.264v-2.255H47.293V52.865h13.17v-2.269h-13.17V38.95H61.77v-2.27H44.88v30.534h17.335zM25.09 36.68h-2.27v26.353L1.925 36.68H0v30.533h2.27V40.96l20.895 26.253h1.925V36.68zm74.48-17.579a2.412 2.412 0 01-1.94.862 2.557 2.557 0 01-1.838-.69 2.686 2.686 0 010-3.676 2.34 2.34 0 011.724-.732 2.715 2.715 0 011.953.675l.345-.575a3.361 3.361 0 00-2.413-.775 2.872 2.872 0 00-2.197.933 3.203 3.203 0 00-.89 2.298 3.06 3.06 0 00.918 2.326 3.247 3.247 0 002.37.89 2.987 2.987 0 002.34-1.004l-.372-.532zm-10.47-4.74h-.718v6.19h.718v-6.19zm3.418 0l-3.002 3.002 3.203 3.189h.962l-3.303-3.318 3.06-2.872h-.92zm-8.718.547a1.982 1.982 0 012.14 2.11h-4.452a2.196 2.196 0 012.312-2.154v.044zm2.27 4.308a2.629 2.629 0 01-2.011.761 2.357 2.357 0 01-2.528-2.398h5.099a3.34 3.34 0 000-.575 2.655 2.655 0 00-.79-2.025 2.872 2.872 0 00-2.025-.775 3.001 3.001 0 00-2.313.919 3.303 3.303 0 00-.818 2.312 3.102 3.102 0 00.905 2.327 3.246 3.246 0 002.384.89 2.96 2.96 0 002.283-.89l-.186-.546zm-7.08 1.307v-6.161h-4.008l-.1 1.924a5.07 5.07 0 01-.92 3.29.832.832 0 01-.674.33v.703a1.55 1.55 0 001.436-.704 7.18 7.18 0 00.861-3.475l.087-1.364h2.614v5.486l.703-.029zm-7.182 0v-6.161h-5.385v6.19h.718v-5.558h3.95v5.515l.717.014zm-13.241 0V15.41l2.499 3.332 2.398-3.332v5.099h.718v-6.147h-.646l-2.47 3.461-2.643-3.461h-.675v6.19l.819-.029zm-5.745-.546a2.37 2.37 0 01-1.795-.718 2.498 2.498 0 01-.69-1.824 2.543 2.543 0 01.69-1.838 2.469 2.469 0 011.795-.718 2.427 2.427 0 011.795.718 2.758 2.758 0 010 3.677 2.386 2.386 0 01-1.838.689l.043.014zm-2.34-.23a3.245 3.245 0 005.586-2.312 3.246 3.246 0 00-6.491 0 3.16 3.16 0 00.861 2.298l.043.014zm-6.162-5.385h-.718v6.19h.718v-6.19zm3.418 0l-3.001 3.001 3.202 3.189h.977l-3.318-3.318 3.06-2.872h-.92zm-14.16-3.275a1.737 1.737 0 001.867 1.839 1.767 1.767 0 001.881-1.767h-.646a1.205 1.205 0 01-1.235 1.221 1.223 1.223 0 01-1.279-1.22l-.588-.073zm3.892 4.309v5.156h.718v-6.19h-.718l-4.122 5.156v-5.156h-.776v6.19h.718l4.18-5.156zm-9.838 4.61a2.37 2.37 0 01-1.795-.718 2.454 2.454 0 01-.704-1.824 2.429 2.429 0 012.499-2.556 2.426 2.426 0 011.795.718 2.543 2.543 0 01.69 1.838 2.543 2.543 0 01-.69 1.838 2.384 2.384 0 01-1.795.66v.044zm-2.341-.23a3.245 3.245 0 005.587-2.312 3.246 3.246 0 10-6.492 0 3.16 3.16 0 00.905 2.27v.042zm-2.643.776v-6.19h-4.006l-.101 1.924a5.257 5.257 0 01-.92 3.29.863.863 0 01-.674.33v.703a1.523 1.523 0 001.35-.704 6.922 6.922 0 00.876-3.475l.086-1.364h2.614v5.486h.775zm-7.97-5.156v5.156h.66v-6.19h-.704l-4.136 5.156v-5.156H9.78v6.19h.718l4.18-5.156zM0 20.552h.876l2.528-3.318-2.427-2.872H.1l2.498 2.872L0 20.552zm4.567-6.19h-.718v6.19h.718v-6.19zm2.872 0l-2.441 2.872 2.57 3.217h.877l-2.643-3.217 2.485-2.872h-.848zm280.498 73.072a.565.565 0 00.546.545.548.548 0 00.517-.545.516.516 0 00-.517-.503.532.532 0 00-.546.503zm.905-9.12h-.747v6.98h.747v-6.98zm-11.231 9.637h.862l2.557-3.217-2.399-2.988h-.876l2.456 2.988-2.6 3.217zm4.553-6.205h-.704v6.205h.704v-6.205zm2.872 0l-2.427 2.988 2.571 3.217h.876l-2.642-3.217 2.47-2.988h-.848zm-11.273 5.616a1.252 1.252 0 01-1.437-1.22c0-.834.776-1.293 1.681-1.293.576-.01 1.14.166 1.608.502v1.034a2.303 2.303 0 01-1.867.977h.015zm-1.437-4.567a3.506 3.506 0 011.738-.489c.919 0 1.336.273 1.436.948.12.47.169.953.144 1.437a2.685 2.685 0 00-1.68-.474 2.757 2.757 0 00-1.695.502 1.689 1.689 0 00-.661 1.436 1.771 1.771 0 001.169 1.756c.237.085.49.118.741.097a2.484 2.484 0 002.126-1.034v.948h.718v-3.82c0-1.652-.646-2.47-2.312-2.47a3.718 3.718 0 00-1.968.56l.244.603zm-4.638-.33v5.486h.718v-5.486h2.455v-.719h-5.629v.719h2.456zm-6.305 4.94a2.398 2.398 0 01-1.795-.718 2.754 2.754 0 010-3.677 2.457 2.457 0 011.795-.704 2.386 2.386 0 011.781.704 2.772 2.772 0 010 3.691 2.451 2.451 0 01-1.824.704h.043zm-2.356-.244a3.447 3.447 0 004.682 0 3.374 3.374 0 000-4.625 3.476 3.476 0 00-4.682 0 3.406 3.406 0 000 4.625zm-2.642.79v-6.205h-4.079v1.94a5.1 5.1 0 01-.919 3.288.853.853 0 01-.675.33v.704a1.556 1.556 0 001.364-.718c.595-1.06.892-2.26.862-3.476l.086-1.35h2.614v5.487h.747zm-7.971-5.156v5.156h.718v-6.205h-.718l-4.136 5.17v-5.17h-.718v6.205h.718l4.136-5.156zm-7.023 5.156v-6.205h-5.385v6.205h.718v-5.515h3.949v5.515h.718zm-15.41-9.422a1.744 1.744 0 00.558 1.314 1.731 1.731 0 001.352.453 1.77 1.77 0 001.737-1.063c.096-.222.145-.462.145-.704h-.661a1.18 1.18 0 01-1.221 1.207 1.202 1.202 0 01-.9-.327 1.217 1.217 0 01-.378-.88h-.632zm3.892 4.309v5.156h.718v-6.248h-.718l-4.136 5.17v-5.17h-.718v6.205h.704l4.15-5.113zm-7.741 0v5.156h.718v-6.248h-.703l-4.122 5.17v-5.17h-.718v6.205h.718l4.107-5.113zm-7.037 5.156v-6.248h-.718v5.53h-2.686v-5.53h-.718v5.53h-2.685v-5.53h-.718v6.205l7.525.043zm-9.45-1.436a2.459 2.459 0 01-1.924.861 2.657 2.657 0 01-1.853-.69 2.528 2.528 0 01-.732-1.866 2.48 2.48 0 01.718-1.81 2.331 2.331 0 011.723-.732 2.773 2.773 0 011.968.675l.33-.575a3.36 3.36 0 00-2.413-.775 2.87 2.87 0 00-2.197.933 3.165 3.165 0 00-.876 2.284 3.107 3.107 0 00.905 2.34 3.243 3.243 0 002.369.891 2.975 2.975 0 002.341-1.005l-.359-.531zm-6.994-4.797h-.718v6.204h.718v-6.204zm-4.711 2.757c1.207 0 1.81.479 1.81 1.436 0 .92-.503 1.437-1.824 1.437h-.934v-2.887l.948.014zm0 3.447c1.796 0 2.542-.862 2.542-2.082 0-1.221-.818-2.04-2.455-2.04h-1.078v-2.097h-.718v6.205l1.709.014zm-6.261-5.587c1.149 0 1.723.36 1.723 1.049 0 .69-.546 1.077-1.436 1.077h-1.637v-2.097l1.35-.029zm.129 2.715c1.221 0 1.838.359 1.838 1.077s-.66 1.149-1.939 1.149h-1.436v-2.226h1.537zm-2.212 2.872h2.025c1.853 0 2.772-.575 2.772-1.752 0-.847-.488-1.336-1.436-1.436a1.438 1.438 0 001.249-1.436c0-1.106-.847-1.595-2.57-1.595h-1.997l-.043 6.219zM108.89 3.92S121.902.36 128.02 0a42.851 42.851 0 01-9.45 8.473c.646-1.263 2.599-3.432 1.824-4.222-1.02-.99-5.3-1.063-11.504-.33z" fill="#4D2506"/></svg>